<svg width="1440" height="600" viewBox="0 0 1440 600" fill="none" xmlns="http://www.w3.org/2000/svg">
<g clip-path="url(#clip0_80_195)">
<rect x="-242" y="523" width="1920" height="1942" fill="#86975B"/>
<path d="M-242 319.4L-206.4 341.428C-170.933 363.125 -99.3333 407.675 -28.6667 411.8C42.4 415.925 114 381.275 184.667 394.228C255.733 407.675 327.333 468.725 398 486.628C469.067 504.2 540.667 477.8 611.333 442.573C682.4 407.675 754 363.125 824.667 372.2C895.733 381.275 967.333 442.325 1038 477.8C1109.07 513.275 1180.67 521.525 1251.33 491C1322.4 460.475 1394 389.525 1464.67 367.828C1535.73 345.8 1607.33 372.2 1642 385.4L1678 398.6V557H1642.4C1606.93 557 1535.33 557 1464.67 557C1393.6 557 1322 557 1251.33 557C1180.27 557 1108.67 557 1038 557C966.933 557 895.333 557 824.667 557C753.6 557 682 557 611.333 557C540.267 557 468.667 557 398 557C326.933 557 255.333 557 184.667 557C113.6 557 42 557 -28.6667 557C-99.7333 557 -171.333 557 -206 557H-242V319.4Z" fill="#86975B"/>
</g>
<g clip-path="url(#clip1_80_195)">
<rect x="-242" y="566" width="1920" height="1942" fill="#1D3827"/>
<path d="M-242 362.4L-206.4 384.428C-170.933 406.125 -99.3333 450.675 -28.6667 454.8C42.4 458.925 114 424.275 184.667 437.228C255.733 450.675 327.333 511.725 398 529.628C469.067 547.2 540.667 520.8 611.333 485.573C682.4 450.675 754 406.125 824.667 415.2C895.733 424.275 967.333 485.325 1038 520.8C1109.07 556.275 1180.67 564.525 1251.33 534C1322.4 503.475 1394 432.525 1464.67 410.828C1535.73 388.8 1607.33 415.2 1642 428.4L1678 441.6V600H1642.4C1606.93 600 1535.33 600 1464.67 600C1393.6 600 1322 600 1251.33 600C1180.27 600 1108.67 600 1038 600C966.933 600 895.333 600 824.667 600C753.6 600 682 600 611.333 600C540.267 600 468.667 600 398 600C326.933 600 255.333 600 184.667 600C113.6 600 42 600 -28.6667 600C-99.7333 600 -171.333 600 -206 600H-242V362.4Z" fill="#1D3827"/>
</g>
<g clip-path="url(#clip2_80_195)">
<rect x="-242" y="230" width="1920" height="1942" fill="#86975B"/>
<path d="M-242 26.4L-206.4 48.4275C-170.933 70.125 -99.3333 114.675 -28.6667 118.8C42.4 122.925 114 88.275 184.667 101.228C255.733 114.675 327.333 175.725 398 193.628C469.067 211.2 540.667 184.8 611.333 149.573C682.4 114.675 754 70.125 824.667 79.2C895.733 88.275 967.333 149.325 1038 184.8C1109.07 220.275 1180.67 228.525 1251.33 198C1322.4 167.475 1394 96.525 1464.67 74.8275C1535.73 52.8 1607.33 79.2 1642 92.4L1678 105.6V264H1642.4C1606.93 264 1535.33 264 1464.67 264C1393.6 264 1322 264 1251.33 264C1180.27 264 1108.67 264 1038 264C966.933 264 895.333 264 824.667 264C753.6 264 682 264 611.333 264C540.267 264 468.667 264 398 264C326.933 264 255.333 264 184.667 264C113.6 264 42 264 -28.6667 264C-99.7333 264 -171.333 264 -206 264H-242V26.4Z" fill="#86975B"/>
</g>
<g clip-path="url(#clip3_80_195)">
<rect x="-242" y="273" width="1920" height="1942" fill="#1D3827"/>
<path d="M-242 69.4L-206.4 91.4275C-170.933 113.125 -99.3333 157.675 -28.6667 161.8C42.4 165.925 114 131.275 184.667 144.228C255.733 157.675 327.333 218.725 398 236.628C469.067 254.2 540.667 227.8 611.333 192.573C682.4 157.675 754 113.125 824.667 122.2C895.733 131.275 967.333 192.325 1038 227.8C1109.07 263.275 1180.67 271.525 1251.33 241C1322.4 210.475 1394 139.525 1464.67 117.828C1535.73 95.8 1607.33 122.2 1642 135.4L1678 148.6V307H1642.4C1606.93 307 1535.33 307 1464.67 307C1393.6 307 1322 307 1251.33 307C1180.27 307 1108.67 307 1038 307C966.933 307 895.333 307 824.667 307C753.6 307 682 307 611.333 307C540.267 307 468.667 307 398 307C326.933 307 255.333 307 184.667 307C113.6 307 42 307 -28.6667 307C-99.7333 307 -171.333 307 -206 307H-242V69.4Z" fill="#1D3827"/>
</g>
<defs>
<clipPath id="clip0_80_195">
<rect width="1920" height="264" fill="white" transform="translate(-242 293)"/>
</clipPath>
<clipPath id="clip1_80_195">
<rect width="1920" height="264" fill="white" transform="translate(-242 336)"/>
</clipPath>
<clipPath id="clip2_80_195">
<rect width="1920" height="264" fill="white" transform="translate(-242)"/>
</clipPath>
<clipPath id="clip3_80_195">
<rect width="1920" height="264" fill="white" transform="translate(-242 43)"/>
</clipPath>
</defs>
</svg>
